<svg xmlns="http://www.w3.org/2000/svg" viewBox="0 0 256 256"><g id="bfdf6521-364a-41a3-81f4-8f69abf31061" data-name="Icons"><path d="M52.67,161.73H203.33a0,0,0,0,1,0,0v20a10.78,10.78,0,0,1-10.78,10.78H63.44a10.78,10.78,0,0,1-10.78-10.78v-20A0,0,0,0,1,52.67,161.73Z"/><rect x="52.67" y="123.7" width="150.67" height="30.79"/><path d="M63.44,86.08H192.56a10.78,10.78,0,0,1,10.78,10.78v20a0,0,0,0,1,0,0H52.67a0,0,0,0,1,0,0v-20A10.78,10.78,0,0,1,63.44,86.08Z"/><rect x="62.44" y="69.06" width="15.79" height="40.35"/><rect x="137.45" y="78.41" width="15.79" height="22.63"/><rect x="85.08" y="79.15" width="27.37" height="22.63"/><rect x="105.08" y="72.75" width="27.37" height="22.63"/><polygon points="167.61 106.26 152.48 94.49 180.1 63.48 195.23 75.26 167.61 106.26"/></g></svg>