<svg xmlns="http://www.w3.org/2000/svg" viewBox="0 0 256 256"><g id="f84764d5-2e86-4611-b770-dacf8fdcd1dc" data-name="Icons"><path d="M70.87,171.87a53.87,53.87,0,0,0,2.36,11.71,26.07,26.07,0,0,0,4.49,8.56,11.77,11.77,0,0,0,9.12,4.53c11.39,0,34.33-.66,34.34-.66l3-.08V185h7.69v10.9l3,.08s22.94.66,34.35.66h.08a11.73,11.73,0,0,0,9-4.53c6.17-7.56,6.73-20,6.85-20.27l.24-3.28H70.62Zm107.76,2.83a45,45,0,0,1-1.67,7,20.48,20.48,0,0,1-3.35,6.54,5.6,5.6,0,0,1-4.46,2.35c-8.76,0-24.64-.38-31.21-.56V178.93H118.05V190c-6.57.18-22.45.57-31.21.57a5.63,5.63,0,0,1-4.46-2.36c-2-2.37-3.58-6.66-4.38-10.29-.27-1.17-.48-2.28-.63-3.21Z"/><path d="M195.43,131.06l0-1.45c-.12-5.42-1.43-16.41-8.82-29-10.3-17.55-20.27-22.13-20.37-22.17l-1.62-.75-12.08,35.67,4.67-46-1-.45-.47-.21c-6.16-2.73-17.92-7.33-27.39-7.4h-.71c-7,.06-16.72,2.68-27.37,7.39l-.49.22-1,.45,4.66,46L91.38,77.69l-1.58.75c-.14,0-10.08,4.61-20.38,22.18-7.4,12.58-8.71,23.57-8.85,29l0,1.45H54.7v25.45h16L74,159.15H181.84l3.28-2.64H201.3V131.06Z"/></g></svg>