<svg xmlns="http://www.w3.org/2000/svg" viewBox="0 0 256 256"><g id="b3fd10b2-aeaf-4d75-8732-03538c5d6706" data-name="Icons"><path d="M199.48,73.39a3.12,3.12,0,0,0-3.91-2l-32.16,10a3.11,3.11,0,0,0-1.84,1.53l-37.45,71.47a17.3,17.3,0,0,0-12.05-.59h0a17.67,17.67,0,0,0-9,6.49L61,138.23a3.12,3.12,0,0,0-2.91,5.53l42.29,22.15a17.63,17.63,0,0,0,17,22.51,17.71,17.71,0,0,0,17.73-17.7,17.55,17.55,0,0,0-5.66-13L166.5,87l30.92-9.66A3.12,3.12,0,0,0,199.48,73.39ZM120.77,181.65a11.09,11.09,0,0,1-3.43.53,11.48,11.48,0,0,1-10.94-8.05,11.69,11.69,0,0,1-.54-3.43,11.49,11.49,0,0,1,8.07-10.94l-.94-3,1,3a11.21,11.21,0,0,1,3.41-.52,11.45,11.45,0,0,1,11,8.06,11.3,11.3,0,0,1,.53,3.43A11.45,11.45,0,0,1,120.77,181.65ZM64.2,101.47l14-26.66a13.49,13.49,0,0,1,18.21-5.69l26.65,14a13.49,13.49,0,0,1,5.68,18.21l-14,26.66a13.48,13.48,0,0,1-18.2,5.69l-26.66-14A13.5,13.5,0,0,1,64.2,101.47Z"/></g></svg>