<svg xmlns="http://www.w3.org/2000/svg" viewBox="0 0 256 256"><g id="eb539711-f9ba-4df3-bb0c-607050952d77" data-name="Icons"><path d="M121.43,78.13c.15.46.37.73.61.73,0,0,.69.2,1.72.46s2.39.56,3.78.79l.62.1c.05.6.11,1.17.19,1.67s.13.72.19,1c0,.15.05.3.08.43s.06.25.09.36l.16.68s0,.06,0,.18.08.28.15.5c.12.43.32,1,.59,1.75.19.48.41,1,.67,1.54l-.47.39c-1.09.9-2.11,1.85-2.87,2.59s-1.26,1.25-1.26,1.25c-.21.12-.26.47-.17.94a5,5,0,0,0,.24.79,6.81,6.81,0,0,0,.48.86l.11.19c.07.11.16.25.26.39l.38.57a4.31,4.31,0,0,0,.32.4,3.58,3.58,0,0,0,.33.34,3.39,3.39,0,0,0,.64.51c.41.25.76.31.94.16,0,0,.65-.3,1.6-.77s2.2-1.13,3.4-1.85l.54-.32.3.31c.33.3.62.6.91.84l.79.68.63.49.42.31.15.1.57.4c.38.24.91.59,1.58,1,.44.25.94.5,1.49.75l-.12.61c-.25,1.38-.44,2.79-.55,3.85s-.16,1.77-.16,1.77c-.08.22.1.53.46.84a5.25,5.25,0,0,0,1.61.8l1.31.39A5,5,0,0,0,146,108c.47-.09.78-.26.81-.5,0,0,.32-.64.74-1.61s.95-2.31,1.41-3.63c.08-.21.15-.41.21-.61.6.06,1.16.1,1.66.1s.73,0,1,0l.8,0,.51,0,.18,0,.7-.06c.43-.06,1.06-.13,1.81-.29.49-.09,1-.23,1.62-.39.09.18.2.36.29.54.69,1.22,1.44,2.42,2,3.32s1,1.45,1,1.45c.07.23.41.35.89.35a5,5,0,0,0,1.74-.43l1.25-.55a4.56,4.56,0,0,0,1.43-1.07c.32-.37.44-.7.31-.91,0,0,0-.17-.12-.47s-.19-.73-.34-1.25c-.3-1-.74-2.38-1.23-3.7-.07-.2-.14-.4-.22-.6.49-.34.94-.68,1.33-1l.42-.34.37-.33c.23-.21.44-.38.6-.54l.5-.49.13-.13.35-.37c.31-.32.72-.81,1.21-1.4.31-.39.65-.85,1-1.35l.57.22c1.31.5,2.64.93,3.65,1.23s1.7.47,1.7.47c.21.13.55,0,.9-.31a4.2,4.2,0,0,0,.55-.61,6.16,6.16,0,0,0,.51-.85s.16-.3.31-.61l.3-.62a4.65,4.65,0,0,0,.42-1.76c0-.48-.11-.82-.34-.9,0,0-.57-.42-1.45-1s-2.07-1.35-3.29-2l-.56-.31c.16-.58.29-1.13.39-1.63.13-.76.24-1.39.28-1.83s.07-.7.07-.7,0-.26.05-.7,0-1.09,0-1.86c0-.51,0-1.08-.1-1.68L175,76c1.32-.46,2.61-1,3.58-1.43s1.6-.74,1.6-.74c.24,0,.42-.35.49-.82a4.85,4.85,0,0,0-.12-1.81s-.08-.33-.15-.67-.17-.67-.17-.67a5.51,5.51,0,0,0-.35-.92,4.74,4.74,0,0,0-.44-.7c-.3-.38-.61-.56-.83-.47,0,0-.71,0-1.77.16s-2.43.31-3.82.57l-.62.12c-.24-.55-.5-1.06-.74-1.5-.37-.67-.7-1.22-1-1.59-.11-.18-.21-.33-.28-.43l-.1-.15-.41-.57c-.13-.18-.3-.39-.5-.64l-.3-.39-.36-.41c-.33-.38-.72-.8-1.14-1.23l.31-.53c.7-1.21,1.36-2.46,1.82-3.42.24-.48.43-.88.56-1.16s.2-.44.2-.44c.16-.19.09-.53-.15-.95a4.82,4.82,0,0,0-1.24-1.31L168,53a5,5,0,0,0-1.64-.73c-.47-.09-.82,0-.94.18,0,0-.51.5-1.24,1.26s-1.68,1.83-2.57,2.92l-.39.49c-.54-.26-1.06-.49-1.53-.66-.71-.29-1.31-.47-1.73-.61l-.68-.19-.17-.05c-.12,0-.29-.08-.5-.12l-.78-.18-1-.18c-.49-.07-1.05-.14-1.65-.19,0-.2-.06-.41-.1-.61-.23-1.38-.53-2.77-.78-3.81s-.45-1.72-.45-1.72c0-.24-.26-.47-.71-.63a4.75,4.75,0,0,0-1.78-.2l-1.36.08a4.88,4.88,0,0,0-1.72.5c-.42.24-.65.51-.6.75,0,0-.08.71-.15,1.77s-.12,2.5-.1,3.9v.64c-.57.15-1.11.31-1.59.48-.72.24-1.3.49-1.71.66l-.63.29-.17.08a4.83,4.83,0,0,0-.46.23l-.71.37-.9.53c-.32.19-.66.43-1,.66l-.35.26-.47-.4c-1.06-.91-2.17-1.79-3-2.42s-1.44-1-1.44-1c-.15-.19-.51-.2-.95,0a4.61,4.61,0,0,0-.72.38l-.39.28-.37.34-.5.46-.34.33-.15.15a6.75,6.75,0,0,0-.62.77,4.75,4.75,0,0,0-.38.74c-.17.44-.18.79,0,1,0,0,.4.6,1,1.46s1.48,2,2.4,3.06c.13.17.27.33.41.49a16.4,16.4,0,0,0-.91,1.4c-.39.66-.7,1.21-.89,1.62l-.23.46-.08.17-.28.64c0,.1-.09.22-.15.34s-.09.26-.15.41-.25.61-.36,1-.32,1-.47,1.61h-.61c-1.4,0-2.79.05-3.85.12s-1.76.14-1.76.14c-.24,0-.5.19-.73.61a4.6,4.6,0,0,0-.31.76,5.4,5.4,0,0,0-.18,1l-.1.68-.06.68a5.38,5.38,0,0,0,0,1A4.12,4.12,0,0,0,121.43,78.13Zm12.36-.48c0-.28,0-.57.05-.87s.07-.6.1-.88.08-.53.12-.75.08-.4.1-.53l.05-.2a2.7,2.7,0,0,0,0-.28c.13-.55.28-1.07.43-1.52.08-.28.2-.52.27-.74l.12-.31c0-.09.07-.17.11-.25l.21-.49.06-.12.17-.35c.14-.31.38-.72.67-1.22s.54-.85.87-1.31a2,2,0,0,0,.19-.22,16.21,16.21,0,0,1,1.55-1.79,15.77,15.77,0,0,1,1.19-1.1l.58-.47a1.59,1.59,0,0,0,.24-.2,12.48,12.48,0,0,1,1.28-.86c.25-.15.47-.29.68-.4l.53-.28a1.78,1.78,0,0,1,.35-.17l.12-.06.48-.22c.31-.13.75-.32,1.29-.5s1-.3,1.51-.44l.28,0h0l.14,0,.53-.1c.21,0,.47-.08.74-.12l.42-.06.43,0,.44,0,.43,0,.39,0h1.38c.57,0,1.11.09,1.57.17.28,0,.55.08.78.14l.59.13.38.09.12,0,.51.14c.32.11.78.24,1.31.46a14.8,14.8,0,0,1,1.41.63l.26.15.18.09L160,63l.65.4.36.23.35.25.37.26.33.26.32.25.27.23a6.88,6.88,0,0,1,.55.5l.22.18c.41.4.78.79,1.09,1.14l.27.32.23.29c.14.19.28.34.37.48l.31.43.08.12.22.33c.19.27.43.69.72,1.2s.47.92.71,1.46c0,.07,0,.15.07.23s0,.06.08.19.12.29.2.5.16.45.25.71.16.56.24.84.14.58.2.85.1.53.14.74c.07.44.11.74.11.74a2,2,0,0,0,.05.24c.06.59.1,1.13.11,1.62s0,1.06,0,1.4,0,.53,0,.53,0,.2-.06.53-.11.82-.21,1.39a15.57,15.57,0,0,1-.39,1.57,2.09,2.09,0,0,0-.08.23s-.09.29-.23.71l-.27.71c-.11.25-.23.52-.34.8s-.26.53-.39.78l-.36.66c-.11.19-.22.35-.28.46l-.11.17-.12.21c-.32.49-.64.94-.94,1.32s-.68.81-.92,1l-.26.29-.1.09-.38.37a4.91,4.91,0,0,1-.45.41l-.27.25-.33.26a14.25,14.25,0,0,1-1.26.93c-.08,0-.17.09-.25.15s-.24.17-.63.39l-.31.18-.35.19-.38.2-.39.19-.4.18-.39.16c-.26.11-.5.21-.71.28l-.5.17-.19.06-.29.11c-.53.15-1,.28-1.49.37s-1,.16-1.37.22l-.52,0-.14,0-.38,0-.61,0c-.23,0-.5,0-.78,0a13.28,13.28,0,0,1-1.58-.11l-.27,0-.21,0-.53-.09-.35-.05-.39-.09-.41-.09c-.15,0-.29-.08-.43-.12l-.42-.11-.41-.13c-.26-.09-.5-.16-.71-.25l-.5-.19-.14-.06,0,0-.27-.1a15.28,15.28,0,0,1-1.4-.69c-.51-.28-.91-.55-1.19-.72l-.43-.31-.12-.08c-.07,0-.18-.12-.31-.23l-.48-.37c-.18-.14-.38-.33-.6-.51s-.73-.67-1.11-1.07a1.64,1.64,0,0,0-.21-.25l-.49-.56c-.28-.34-.65-.81-1-1.3a19.35,19.35,0,0,1-1.22-2,2,2,0,0,0-.14-.25c-.25-.51-.47-1-.64-1.45s-.36-1-.45-1.32c-.05-.16-.08-.29-.11-.37a1.31,1.31,0,0,1,0-.14s0-.18-.12-.51c0-.08,0-.17-.07-.27l-.06-.32c0-.24-.11-.49-.14-.78-.07-.47-.12-1-.16-1.58v-.28s0-.07,0-.2,0-.32,0-.54S133.78,77.93,133.79,77.65Z"/><path d="M153.4,94.58a16.37,16.37,0,1,0-18.2-14.26A16.36,16.36,0,0,0,153.4,94.58Zm-3.72-30.36a14.22,14.22,0,1,1-12.35,15.84A14.19,14.19,0,0,1,149.68,64.22Z"/><path d="M75.92,133.29c.11.12.22.24.33.34a4.49,4.49,0,0,0,.65.51c.41.25.76.31.94.15,0,0,.65-.29,1.6-.76s2.19-1.14,3.39-1.85l.54-.33.31.32c.32.3.61.59.9.84s.55.48.8.68l.63.49c.17.14.32.23.42.31l.14.1.58.4c.38.24.9.59,1.57.95.44.25,1,.51,1.49.76,0,.2-.07.4-.11.6-.25,1.38-.45,2.8-.56,3.85s-.15,1.77-.15,1.77c-.09.23.09.54.46.85a4.83,4.83,0,0,0,1.61.79l1.31.4a4.68,4.68,0,0,0,1.78.11c.48-.08.78-.25.82-.49,0,0,.31-.64.73-1.62s1-2.3,1.42-3.63l.21-.6c.59.06,1.15.09,1.66.1s.73,0,1,0l.8,0c.22,0,.4,0,.52,0l.18,0,.69-.06c.44-.07,1.07-.14,1.81-.29q.75-.15,1.62-.39l.3.54c.68,1.22,1.44,2.42,2,3.31s1,1.46,1,1.46c.08.23.41.35.89.35a5,5,0,0,0,1.74-.43l1.25-.55a4.65,4.65,0,0,0,1.44-1.07c.31-.37.44-.7.31-.91,0,0,0-.17-.12-.47s-.2-.73-.35-1.25c-.3-1-.73-2.38-1.22-3.7-.07-.2-.15-.4-.23-.6.49-.34.94-.68,1.33-1,.15-.12.29-.24.43-.34l.37-.33c.23-.21.44-.38.59-.54l.5-.49a1.21,1.21,0,0,1,.13-.13l.35-.38c.31-.32.73-.8,1.21-1.39.32-.4.65-.86,1-1.35l.57.22c1.32.5,2.64.93,3.66,1.23s1.7.47,1.7.47c.21.13.54,0,.9-.32a4.78,4.78,0,0,0,.55-.6,6.8,6.8,0,0,0,.5-.85l.32-.61c.15-.31.29-.63.29-.63a4.59,4.59,0,0,0,.43-1.75c0-.48-.11-.82-.34-.9,0,0-.58-.42-1.46-1s-2.06-1.35-3.29-2l-.55-.31c.16-.58.29-1.14.38-1.64.14-.75.24-1.38.28-1.83L123,117s0-.26,0-.71,0-1.08,0-1.85c0-.51,0-1.08-.1-1.68l.58-.2c1.32-.47,2.61-1,3.57-1.43s1.6-.74,1.6-.74c.24,0,.42-.35.49-.83a4.61,4.61,0,0,0-.12-1.8l-.14-.67-.18-.67a5.62,5.62,0,0,0-.35-.93,4.46,4.46,0,0,0-.44-.7c-.29-.38-.6-.55-.83-.46,0,0-.71,0-1.76.16s-2.44.3-3.82.57l-.62.12c-.25-.55-.5-1.06-.75-1.51-.37-.66-.7-1.21-.95-1.58l-.28-.44-.11-.15-.41-.57c-.12-.18-.3-.39-.49-.63l-.31-.39-.35-.42c-.34-.38-.72-.79-1.15-1.22l.32-.53c.7-1.21,1.35-2.46,1.82-3.42.24-.48.42-.88.55-1.16l.2-.45c.16-.18.1-.53-.15-.94a4.77,4.77,0,0,0-1.23-1.31l-1.1-.83a5.09,5.09,0,0,0-1.64-.73c-.47-.08-.82,0-.93.19,0,0-.51.49-1.24,1.26s-1.69,1.83-2.57,2.91l-.4.5c-.54-.26-1.05-.49-1.53-.67-.7-.29-1.31-.46-1.73-.61l-.67-.18-.18,0-.5-.13-.78-.17c-.3-.07-.65-.11-1-.18s-1.06-.14-1.65-.19c0-.21-.07-.41-.1-.61-.23-1.39-.53-2.78-.78-3.82s-.45-1.71-.45-1.71c0-.25-.27-.47-.72-.63a4.91,4.91,0,0,0-1.78-.21l-1.36.08a5.09,5.09,0,0,0-1.72.5c-.42.25-.64.51-.6.75,0,0-.07.72-.14,1.78S94,90.17,94,91.58c0,.21,0,.43,0,.64-.58.15-1.12.31-1.59.48-.72.24-1.31.49-1.72.66l-.63.29-.16.08-.47.22-.7.38c-.28.14-.57.33-.9.52s-.66.43-1,.67l-.36.26-.46-.4c-1.06-.92-2.18-1.8-3-2.42s-1.44-1-1.44-1c-.16-.18-.51-.19-1,0a4.35,4.35,0,0,0-.72.39l-.38.28c-.13.1-.25.22-.38.34l-.5.46c-.12.12-.25.23-.34.33l-.15.15a6.84,6.84,0,0,0-.61.77,3.66,3.66,0,0,0-.38.73c-.17.45-.18.8,0,1,0,0,.4.59,1,1.46s1.47,2,2.39,3.06l.42.48c-.35.49-.66,1-.92,1.4-.39.66-.7,1.22-.89,1.62-.09.2-.17.36-.23.47a1.37,1.37,0,0,0-.07.16s-.11.24-.28.65q-.08.15-.15.33c0,.13-.1.27-.16.41-.1.3-.24.62-.35,1s-.32,1-.47,1.61H76.8c-1.41,0-2.79,0-3.85.11s-1.76.15-1.76.15c-.24,0-.5.18-.73.61a3.62,3.62,0,0,0-.32.76,6.45,6.45,0,0,0-.18,1s0,.33-.09.67l-.06.69a6.34,6.34,0,0,0,0,1,4.06,4.06,0,0,0,.18.81c.15.46.37.73.62.73,0,0,.68.2,1.71.45s2.39.56,3.78.8l.63.1c.05.6.11,1.16.19,1.67s.13.72.18,1c0,.15.06.29.08.43a3.15,3.15,0,0,1,.09.36l.17.68a1.35,1.35,0,0,0,0,.18l.14.49c.12.43.33,1,.6,1.76.18.47.41,1,.66,1.54l-.47.39c-1.08.9-2.1,1.84-2.87,2.58s-1.25,1.26-1.25,1.26c-.22.12-.27.46-.18.94a4.69,4.69,0,0,0,.25.79,7.58,7.58,0,0,0,.48.86l.11.18c.06.11.16.26.25.4s.39.57.39.57S75.82,133.17,75.92,133.29Zm6.44-19.07c0-.28,0-.58,0-.88s.07-.59.1-.87.09-.53.12-.75a4.72,4.72,0,0,1,.11-.53c0-.13,0-.2,0-.2s0-.19,0-.28c.13-.56.28-1.08.43-1.52.08-.28.19-.52.27-.74l.11-.31.11-.25c.14-.31.21-.49.21-.49l.06-.12c0-.09.1-.2.18-.35.14-.31.37-.73.66-1.23s.54-.85.88-1.31l.18-.21a18.32,18.32,0,0,1,1.55-1.8c.42-.42.86-.81,1.2-1.1l.57-.46a1.64,1.64,0,0,0,.25-.21c.44-.33.88-.62,1.27-.86s.47-.29.68-.4l.54-.28a3.52,3.52,0,0,1,.35-.17l.12-.06.48-.22c.31-.12.75-.32,1.29-.5s1-.3,1.5-.44l.28,0,0,0,.15,0,.52-.1a6.51,6.51,0,0,1,.74-.11l.42-.06.44,0,.44,0h.42l.4,0H101c.57,0,1.1.1,1.57.18.28,0,.54.08.77.13l.59.13a2.48,2.48,0,0,1,.38.1l.13,0,.51.14c.31.11.77.24,1.3.46a14.91,14.91,0,0,1,1.42.63,1.35,1.35,0,0,0,.26.15l.18.1.46.26a7,7,0,0,1,.65.39l.36.23.36.26.36.25.34.27.31.24.27.24c.34.28.55.49.55.49l.23.19q.62.6,1.08,1.14l.27.31.23.3c.15.18.28.34.38.48l.31.43.08.11.21.33c.19.28.44.7.72,1.2a13.53,13.53,0,0,1,.71,1.47,2,2,0,0,0,.08.22s0,.07.07.19.13.29.2.5l.25.72.24.84.21.84c0,.28.1.53.14.75l.1.73c0,.09,0,.17.05.25a13.75,13.75,0,0,1,.11,1.61c0,.58,0,1.07,0,1.41s0,.53,0,.53,0,.19-.06.53-.11.82-.21,1.39-.22,1-.38,1.57l-.09.23-.23.71-.27.7c-.1.26-.22.53-.34.8l-.38.78-.37.67c-.11.19-.21.34-.28.45l-.11.18a2.12,2.12,0,0,0-.11.21,14,14,0,0,1-1,1.31c-.36.45-.67.82-.91,1.06l-.27.28-.1.1-.37.37c-.12.12-.28.25-.45.41l-.28.25-.32.26c-.36.29-.79.61-1.26.93l-.26.14s-.24.17-.62.39l-.31.18a3.9,3.9,0,0,1-.35.19l-.38.2-.4.19-.39.19-.4.16c-.25.11-.49.2-.7.27l-.5.18-.2.06-.28.1a14.15,14.15,0,0,1-1.5.37c-.56.12-1,.17-1.36.22l-.53,0h-.13a3.1,3.1,0,0,1-.39,0l-.6,0c-.24,0-.5,0-.79,0-.47,0-1,0-1.58-.11l-.27-.05-.2,0-.53-.09-.36-.06-.38-.08-.42-.1-.42-.11-.43-.11-.4-.14a6.63,6.63,0,0,1-.72-.25l-.49-.18-.14-.06,0,0-.26-.1c-.52-.23-1-.47-1.41-.7s-.9-.54-1.19-.72l-.43-.3-.11-.08a2.6,2.6,0,0,1-.32-.23l-.48-.37c-.18-.15-.37-.33-.6-.51s-.72-.67-1.11-1.08l-.2-.24-.49-.56c-.28-.35-.65-.81-1-1.3a17.19,17.19,0,0,1-1.22-2c0-.08-.09-.17-.14-.24-.26-.52-.47-1-.64-1.45a12.24,12.24,0,0,1-.45-1.32c0-.16-.09-.29-.11-.38a.93.93,0,0,1,0-.13s-.05-.19-.13-.52l-.06-.27c0-.1,0-.2-.06-.32s-.11-.49-.14-.77c-.07-.47-.13-1-.17-1.58a2.62,2.62,0,0,0,0-.28,1.87,1.87,0,0,1,0-.21c0-.13,0-.31,0-.54S82.36,114.5,82.36,114.22Z"/><path d="M186.05,134.86s-.08-.34-.15-.68-.17-.66-.17-.66a6.24,6.24,0,0,0-.35-.93,4.46,4.46,0,0,0-.44-.7c-.3-.38-.61-.56-.83-.47,0,0-.71.05-1.77.17s-2.43.3-3.82.56l-.61.12c-.25-.55-.51-1.06-.75-1.5-.38-.67-.7-1.22-.95-1.59l-.28-.43-.11-.15-.41-.57c-.13-.18-.3-.39-.49-.64l-.31-.39-.36-.41c-.33-.38-.72-.8-1.14-1.22l.31-.54c.71-1.2,1.36-2.45,1.83-3.41l.55-1.17c.12-.28.2-.44.2-.44.16-.18.09-.53-.15-1a5,5,0,0,0-1.24-1.31l-1.09-.82a4.88,4.88,0,0,0-1.64-.73c-.48-.09-.82,0-.94.18,0,0-.51.5-1.24,1.26s-1.68,1.83-2.57,2.92c-.13.16-.26.33-.4.49-.53-.26-1-.48-1.52-.66-.71-.29-1.32-.47-1.73-.61l-.68-.19-.17,0c-.12,0-.28-.08-.5-.12l-.78-.17c-.3-.07-.65-.12-1-.18s-1.06-.15-1.66-.2c0-.2-.06-.4-.1-.61-.23-1.38-.52-2.77-.78-3.81s-.45-1.72-.45-1.72c0-.24-.26-.47-.71-.63a4.75,4.75,0,0,0-1.78-.2l-1.36.08a4.88,4.88,0,0,0-1.72.5c-.42.24-.65.51-.6.75,0,0-.08.71-.15,1.77s-.12,2.5-.1,3.91v.63c-.57.15-1.11.31-1.58.48-.73.24-1.31.5-1.72.66l-.63.3-.17.07c-.1.05-.27.12-.46.23l-.71.37c-.27.15-.56.33-.89.53s-.67.43-1,.67l-.35.25-.47-.4c-1.05-.91-2.17-1.79-3-2.41s-1.44-1-1.44-1c-.15-.19-.51-.19-.95,0a4,4,0,0,0-.72.39,4.56,4.56,0,0,0-.39.27L136,120l-.5.47c-.13.11-.25.23-.34.32L135,121a5.92,5.92,0,0,0-.62.76,4.75,4.75,0,0,0-.38.74c-.16.45-.17.8,0,1,0,0,.4.6,1,1.47s1.48,2,2.4,3.06l.41.48c-.34.49-.65,1-.91,1.4-.39.66-.7,1.22-.89,1.62l-.23.47-.08.16-.28.64a3.23,3.23,0,0,1-.15.34c0,.13-.09.26-.15.41s-.25.62-.35,1-.33,1-.48,1.61h-.61c-1.4,0-2.79.05-3.84.12s-1.77.15-1.77.15c-.24-.05-.5.18-.73.6a4.6,4.6,0,0,0-.31.76,5.57,5.57,0,0,0-.18,1l-.1.68-.06.68a5.38,5.38,0,0,0,0,1,5.21,5.21,0,0,0,.17.81c.16.45.38.73.62.72,0,0,.69.2,1.72.46s2.39.56,3.78.79l.62.11c0,.6.11,1.16.19,1.66s.13.73.19,1,.05.3.08.43.06.25.09.36c.1.44.16.68.16.68l.05.18c0,.12.09.29.15.5.12.43.33,1,.6,1.75.18.48.4,1,.66,1.55-.16.12-.31.25-.47.39-1.09.9-2.11,1.84-2.87,2.58s-1.26,1.26-1.26,1.26c-.21.12-.26.46-.17.94a4.34,4.34,0,0,0,.25.78,6.26,6.26,0,0,0,.47.87l.12.18a4.07,4.07,0,0,0,.25.39l.38.57a4.47,4.47,0,0,0,.32.41l.33.34a4.45,4.45,0,0,0,.64.51c.41.25.76.3.95.15,0,0,.64-.29,1.59-.77s2.2-1.13,3.4-1.85l.54-.32c.1.11.21.21.3.32.33.29.62.59.91.84s.55.48.79.67l.63.49c.18.15.33.24.42.31l.15.11.57.39c.38.24.91.59,1.58,1,.44.25,1,.5,1.49.75,0,.21-.08.41-.11.61-.26,1.38-.45,2.79-.56,3.85s-.16,1.77-.16,1.77c-.08.23.1.53.47.84a4.83,4.83,0,0,0,1.61.8l1.3.4a5.18,5.18,0,0,0,1.79.11c.47-.08.78-.26.81-.5,0,0,.31-.64.74-1.61s.95-2.31,1.42-3.63l.21-.6c.59,0,1.15.09,1.65.1s.73,0,1,0l.8,0a4.8,4.8,0,0,0,.51,0h.18l.7-.07c.44-.06,1.07-.13,1.81-.29a16.29,16.29,0,0,0,1.62-.39,5.7,5.7,0,0,0,.3.54c.68,1.23,1.43,2.43,2,3.32s1,1.45,1,1.45c.08.23.41.35.89.35a4.79,4.79,0,0,0,1.74-.43l1.25-.54a5.08,5.08,0,0,0,1.44-1.07c.31-.37.43-.7.31-.91,0,0,0-.18-.12-.48s-.2-.73-.35-1.24c-.3-1-.74-2.39-1.22-3.7l-.23-.6c.49-.35.94-.69,1.33-1l.42-.35c.14-.11.26-.22.37-.32s.44-.39.59-.55l.51-.49.12-.12.36-.38c.31-.32.73-.8,1.21-1.4.31-.39.65-.85,1-1.35l.57.23c1.31.5,2.64.93,3.65,1.22s1.71.47,1.71.47c.2.13.54,0,.89-.31a3.73,3.73,0,0,0,.55-.61,4.9,4.9,0,0,0,.51-.85l.32-.61c.14-.31.29-.62.29-.62a4.83,4.83,0,0,0,.43-1.76c0-.48-.12-.82-.35-.89,0,0-.57-.43-1.45-1s-2.07-1.35-3.3-2l-.55-.31c.16-.59.3-1.14.39-1.64.13-.76.24-1.38.28-1.83s.07-.7.07-.7,0-.25.05-.7,0-1.09,0-1.85c0-.52,0-1.08-.1-1.68l.58-.21c1.33-.46,2.61-1,3.58-1.42s1.6-.75,1.6-.75c.24,0,.42-.34.49-.82A4.8,4.8,0,0,0,186.05,134.86Zm-11.73,8.19c0,.34,0,.54,0,.54s0,.19-.06.53-.11.81-.21,1.38a14.93,14.93,0,0,1-.39,1.57c0,.08,0,.16-.08.24l-.23.7-.27.71c-.11.26-.23.53-.34.8l-.39.78L172,151c-.11.2-.22.35-.28.46l-.11.17c0,.08-.08.14-.11.21-.33.5-.65.94-1,1.32s-.68.81-.91,1l-.27.29-.1.1-.38.36a3.8,3.8,0,0,1-.45.41l-.28.26-.32.25c-.36.3-.79.62-1.26.94l-.25.14s-.24.17-.63.39l-.31.18-.35.19-.37.2-.4.19-.4.19-.39.16c-.26.1-.49.2-.71.27l-.5.18-.19,0-.29.11c-.53.15-1,.28-1.49.37s-1,.17-1.37.22l-.52,0h-.14c-.09,0-.22,0-.39,0l-.6,0c-.23,0-.49,0-.79,0-.46,0-1,0-1.57-.11l-.28-.05-.2,0-.53-.09-.35,0-.39-.09-.41-.09-.43-.11-.42-.12-.41-.13c-.26-.09-.51-.16-.71-.25l-.5-.19-.13-.06-.05,0-.26-.09c-.52-.24-1-.47-1.41-.7s-.91-.54-1.19-.72l-.43-.3-.12-.08-.31-.23-.48-.38c-.19-.14-.38-.32-.6-.51a13.55,13.55,0,0,1-1.11-1.07A1.64,1.64,0,0,0,144,154l-.48-.55c-.29-.35-.66-.82-1-1.3a19.15,19.15,0,0,1-1.23-2,2,2,0,0,0-.14-.25c-.25-.51-.47-1-.64-1.44s-.36-1-.45-1.33c-.05-.16-.08-.29-.11-.37l0-.13s0-.19-.12-.52c0-.08,0-.17-.07-.27l-.06-.32c0-.24-.1-.49-.14-.78-.07-.46-.13-1-.16-1.58v-.28s0-.07,0-.2,0-.31,0-.54,0-.48,0-.76,0-.58.05-.88.07-.59.1-.87.08-.54.12-.76a4.47,4.47,0,0,1,.11-.52c0-.13,0-.21,0-.21a2.51,2.51,0,0,0,0-.27,14.24,14.24,0,0,1,.44-1.53c.07-.28.19-.51.26-.74s.08-.21.12-.3l.11-.26.21-.49.06-.12.17-.35c.14-.3.38-.72.67-1.22s.54-.85.87-1.31a2,2,0,0,0,.19-.22,17.31,17.31,0,0,1,1.55-1.79c.41-.42.85-.81,1.19-1.1l.58-.47a1.59,1.59,0,0,0,.24-.2,14.36,14.36,0,0,1,1.28-.86c.25-.15.47-.29.68-.4l.53-.28a3.42,3.42,0,0,1,.35-.17l.12-.06.48-.22c.31-.13.75-.32,1.3-.5s1-.3,1.5-.44l.27,0H153l.14,0,.52-.1c.22-.05.47-.08.75-.12l.42-.06.43,0a3.42,3.42,0,0,1,.44,0l.43,0h1.77c.57,0,1.11.1,1.57.17.29,0,.55.08.78.14l.59.13.37.09.14,0,.5.14c.32.11.78.24,1.31.46a14.8,14.8,0,0,1,1.41.63l.26.15.19.09.46.27a6.9,6.9,0,0,1,.64.39l.36.23.37.25.35.26.34.26.32.25.27.23c.34.29.55.5.55.5l.22.19c.41.39.78.78,1.09,1.13l.27.32.23.29c.14.19.28.34.38.48l.3.44.08.11.22.33c.19.28.43.69.72,1.2s.47.92.71,1.46c0,.08,0,.15.07.23l.08.19c0,.12.13.29.2.5s.15.45.25.72.16.55.24.83.14.58.2.85.1.52.15.75l.1.73c0,.09,0,.17.05.25.06.58.1,1.13.11,1.61S174.35,142.71,174.32,143.05Z"/><path d="M154.94,125.77A16.38,16.38,0,1,0,173.15,140,16.37,16.37,0,0,0,154.94,125.77Zm3.72,30.36A14.22,14.22,0,1,1,171,140.29,14.19,14.19,0,0,1,158.66,156.13Z"/><path d="M134.38,170.44c-.08-.33-.17-.66-.17-.66a5.3,5.3,0,0,0-.35-.93,4.46,4.46,0,0,0-.44-.7c-.3-.38-.6-.56-.83-.47,0,0-.71,0-1.77.17s-2.43.3-3.81.56l-.62.12q-.37-.83-.75-1.5c-.37-.67-.7-1.22-1-1.59l-.28-.43-.11-.15-.41-.57c-.12-.18-.3-.39-.49-.64l-.31-.38c-.11-.14-.23-.27-.36-.42-.33-.38-.72-.8-1.14-1.22.1-.18.21-.36.32-.54.7-1.2,1.35-2.46,1.82-3.42.23-.47.42-.87.55-1.16l.2-.44c.16-.18.09-.53-.15-.95a5.08,5.08,0,0,0-1.23-1.31L122,153a4.88,4.88,0,0,0-1.64-.73c-.47-.09-.82,0-.94.18,0,0-.51.5-1.24,1.26s-1.68,1.83-2.56,2.92c-.14.16-.27.33-.4.49-.54-.25-1.06-.48-1.53-.66-.7-.29-1.31-.47-1.73-.61l-.67-.19-.18,0c-.12,0-.28-.09-.5-.13l-.78-.17c-.3-.07-.65-.12-1-.18s-1.06-.15-1.66-.2l-.09-.61c-.24-1.38-.53-2.77-.78-3.81s-.45-1.71-.45-1.71c0-.25-.27-.48-.72-.64a4.72,4.72,0,0,0-1.78-.2L102,148a4.88,4.88,0,0,0-1.72.5c-.42.24-.65.51-.6.75,0,0-.07.71-.15,1.77s-.12,2.5-.1,3.91c0,.21,0,.42,0,.64-.58.15-1.12.31-1.59.47-.72.24-1.31.5-1.72.66l-.63.3-.17.07c-.1.06-.26.12-.46.23l-.71.38c-.27.14-.56.33-.89.52s-.67.43-1,.67l-.36.25-.46-.4c-1.06-.91-2.18-1.79-3-2.41s-1.44-1-1.44-1c-.15-.19-.5-.19-1,0a4.35,4.35,0,0,0-.72.39l-.38.27c-.13.11-.26.22-.38.34l-.5.47c-.13.11-.25.23-.34.32l-.15.16a6.9,6.9,0,0,0-.62.76,3.92,3.92,0,0,0-.37.74c-.17.45-.18.8,0,.95,0,0,.4.6,1,1.47s1.47,2,2.39,3.06l.41.48c-.34.49-.65,1-.91,1.4-.39.66-.7,1.22-.89,1.62-.1.2-.17.36-.23.46l-.08.17L84,169c0,.1-.1.22-.15.34l-.16.41c-.1.29-.24.61-.35,1s-.32,1-.47,1.61h-.62c-1.4,0-2.78,0-3.84.12s-1.76.15-1.76.15c-.24,0-.51.18-.74.6a5.67,5.67,0,0,0-.31.76,6.45,6.45,0,0,0-.18,1s0,.34-.09.68-.07.68-.07.68a6.44,6.44,0,0,0,0,1,4.23,4.23,0,0,0,.18.81c.15.45.37.73.62.72,0,0,.68.2,1.71.46s2.39.56,3.78.79l.63.11c0,.6.11,1.16.19,1.66s.13.73.18,1,.06.3.08.43l.09.36c.1.44.16.68.16.68s0,.07.06.18.08.29.14.5c.12.43.33,1,.6,1.75.18.48.41,1,.66,1.54-.15.14-.31.27-.47.4-1.08.89-2.1,1.84-2.87,2.58s-1.25,1.26-1.25,1.26c-.22.11-.27.46-.18.94a4.34,4.34,0,0,0,.25.78,6.26,6.26,0,0,0,.47.87l.12.18a3.12,3.12,0,0,0,.25.39c.19.29.39.57.39.57a3.25,3.25,0,0,0,.31.4c.11.13.22.24.33.35a4.45,4.45,0,0,0,.64.51c.41.25.77.3,1,.14,0,0,.65-.29,1.59-.76s2.2-1.13,3.4-1.84l.54-.33c.11.1.21.21.31.32.32.29.61.59.9.84s.55.48.79.67l.64.5c.17.14.32.23.41.3l.15.11.58.39c.37.24.9.59,1.57,1,.44.25.95.5,1.49.76,0,.19-.08.4-.11.6-.25,1.38-.45,2.79-.56,3.85s-.15,1.77-.15,1.77c-.09.22.09.53.46.84a4.83,4.83,0,0,0,1.61.8l1.3.39A5,5,0,0,0,100,208c.47-.08.78-.26.82-.5,0,0,.31-.64.73-1.61s1-2.3,1.42-3.63l.21-.61c.59.06,1.15.1,1.66.11s.72,0,1,0l.8,0a4.58,4.58,0,0,0,.51,0h.18l.7-.07c.44-.06,1.07-.13,1.81-.29.5-.09,1-.23,1.62-.39l.3.55c.69,1.21,1.43,2.42,2,3.31s1,1.45,1,1.45c.08.24.41.35.89.35a4.79,4.79,0,0,0,1.74-.43l1.25-.55a4.73,4.73,0,0,0,1.44-1.07c.31-.37.43-.7.31-.9,0,0-.05-.18-.12-.48s-.2-.73-.35-1.24c-.3-1-.73-2.39-1.22-3.71l-.23-.59c.49-.35.94-.69,1.33-1l.43-.35.37-.33c.23-.2.43-.38.59-.54l.5-.49.13-.12.35-.38c.31-.32.73-.8,1.21-1.4.32-.39.65-.85,1-1.34l.57.21c1.31.5,2.64.94,3.65,1.23s1.71.48,1.71.48c.21.12.54,0,.9-.32a4.93,4.93,0,0,0,.55-.61,5.61,5.61,0,0,0,.5-.85l.32-.61c.14-.31.29-.62.29-.62a4.83,4.83,0,0,0,.43-1.76c0-.48-.11-.81-.34-.89,0,0-.58-.43-1.46-1s-2.06-1.35-3.29-2.05l-.55-.31c.16-.57.29-1.13.38-1.63.14-.75.24-1.38.28-1.83s.08-.7.08-.7,0-.26,0-.7,0-1.09,0-1.85c0-.52,0-1.09-.1-1.69l.57-.19c1.33-.47,2.62-1,3.58-1.43s1.6-.75,1.6-.75c.24,0,.42-.34.49-.82a4.66,4.66,0,0,0-.12-1.81S134.46,170.78,134.38,170.44Zm-11.58,8.87c0,.34,0,.54,0,.54s0,.19-.06.53-.11.81-.21,1.39-.22,1-.38,1.56c0,.08-.06.15-.09.24l-.23.7-.27.71c-.1.26-.22.53-.34.8l-.38.78-.37.66c-.11.2-.21.35-.28.46l-.11.17a2.12,2.12,0,0,0-.11.21c-.32.5-.65.94-1,1.32s-.68.81-.91,1.05l-.27.29-.1.1-.38.37c-.11.12-.27.25-.44.4l-.28.25-.32.26A14.49,14.49,0,0,1,115,193l-.25.15s-.24.17-.62.39l-.31.18-.35.19-.38.2-.4.19-.4.18-.39.17c-.25.1-.49.2-.7.27l-.5.18-.2.05-.28.11c-.54.15-1,.28-1.5.37s-1,.17-1.37.22l-.52.05h-.14a2.91,2.91,0,0,1-.38,0l-.61,0h-.78c-.47,0-1-.05-1.58-.11l-.27,0-.21,0-.52-.08-.36-.06-.38-.09-.42-.09-.43-.11-.42-.12-.4-.13c-.27-.09-.51-.16-.72-.25l-.49-.19-.14-.05,0,0-.26-.09c-.52-.24-1-.47-1.41-.7s-.9-.55-1.19-.72l-.43-.3-.11-.08c-.08-.06-.19-.12-.32-.23l-.48-.38c-.18-.14-.38-.32-.6-.51s-.72-.67-1.11-1.07l-.2-.25-.49-.56c-.28-.34-.65-.81-1-1.29a18.14,18.14,0,0,1-1.22-2l-.15-.25c-.25-.51-.46-1-.64-1.44a13.43,13.43,0,0,1-.44-1.33l-.12-.37,0-.13-.13-.52q0-.12-.06-.27c0-.1,0-.21-.07-.32s-.1-.49-.13-.78c-.08-.47-.13-1-.17-1.58a1.31,1.31,0,0,0,0-.28v-.2a4.11,4.11,0,0,1,0-.54c0-.22,0-.49,0-.76s0-.58,0-.88.07-.6.1-.87.09-.54.12-.76a5.26,5.26,0,0,1,.11-.53,1.9,1.9,0,0,1,0-.19c0-.1,0-.19.05-.28.13-.56.28-1.08.43-1.52.08-.28.19-.53.26-.75s.08-.21.12-.3l.11-.26.21-.49.06-.12.17-.35c.15-.3.38-.72.67-1.22s.54-.85.88-1.31l.18-.22a16.21,16.21,0,0,1,1.55-1.79c.42-.42.86-.81,1.2-1.1l.57-.47a1.59,1.59,0,0,0,.24-.2c.45-.33.89-.63,1.28-.86s.47-.29.68-.4l.53-.28.35-.17.13-.06.47-.22c.32-.13.75-.32,1.3-.5s.95-.3,1.5-.44l.28,0h0l.14,0,.53-.1c.21,0,.47-.08.74-.12l.42-.06.44,0a3.13,3.13,0,0,1,.43,0l.43,0h1.78c.57,0,1.1.09,1.57.17l.77.14.59.13.38.09.13,0,.51.14c.31.11.77.24,1.3.46a14.8,14.8,0,0,1,1.41.63l.27.15.18.09.46.27c.2.1.41.24.65.39l.36.23.36.25.36.26.33.26.32.25.27.23c.34.29.55.5.55.5a1.3,1.3,0,0,0,.23.18c.41.4.77.79,1.08,1.15l.27.31.23.29c.15.19.28.34.38.49l.31.43a.63.63,0,0,0,.08.11l.21.33c.19.28.43.69.72,1.2s.48.92.71,1.46a2.09,2.09,0,0,0,.08.23,1.94,1.94,0,0,0,.07.19c0,.12.13.29.2.5s.16.45.25.72.16.55.24.83.14.58.21.85l.14.75.1.73c0,.08,0,.17,0,.25.07.58.1,1.13.11,1.61S122.83,179,122.8,179.31Z"/><path d="M102,131.15a16.38,16.38,0,1,0-18.21-14.26A16.37,16.37,0,0,0,102,131.15Zm-3.72-30.36a14.22,14.22,0,1,1-12.35,15.84A14.18,14.18,0,0,1,98.26,100.79Z"/><path d="M103.42,162a16.37,16.37,0,1,0,18.21,14.26A16.37,16.37,0,0,0,103.42,162Zm3.72,30.36a14.22,14.22,0,1,1,12.35-15.84A14.19,14.19,0,0,1,107.14,192.39Z"/></g></svg>