<svg xmlns="http://www.w3.org/2000/svg" viewBox="0 0 256 256"><g id="a7715bb6-4e82-4695-9e91-d9b1c85356da" data-name="Icons"><path d="M121.6,140.86a25.9,25.9,0,0,1,24.84,33.4h24.69c0-.23,0-.46,0-.69a19.22,19.22,0,0,1,35.2-10.69V67.55a5.25,5.25,0,0,0-5.24-5.24H143.23a5.22,5.22,0,0,0-4.5,2.56l-35.79,60a5.27,5.27,0,0,0-.74,2.68v22.08A25.86,25.86,0,0,1,121.6,140.86Zm-1.06-35.23,21.17-35.52a5.23,5.23,0,0,1,4.5-2.55h49.61a5.23,5.23,0,0,1,5.23,5.24V97.58a5.23,5.23,0,0,1-5.23,5.23H171a5.24,5.24,0,0,0-5.23,5.24v.26a5.25,5.25,0,0,1-5.24,5.24H125A5.24,5.24,0,0,1,120.54,105.63Zm-.62,41.13a23.47,23.47,0,1,0,23.48,23.48A23.51,23.51,0,0,0,119.92,146.76Zm71.56,12.91a17,17,0,1,0,17,17A17,17,0,0,0,191.48,159.67Z"/><path d="M80.18,157.28H52.27a4.78,4.78,0,0,0-4.77,4.77v.4a4.78,4.78,0,0,0,4.77,4.77H90.62a4.78,4.78,0,0,0,4.77-4.77V67.72A4.78,4.78,0,0,0,90.62,63h-.9A4.78,4.78,0,0,0,85,67.72v84.79A4.77,4.77,0,0,1,80.18,157.28Z"/></g></svg>