<svg xmlns="http://www.w3.org/2000/svg" viewBox="0 0 256 256"><g id="fb1ccd52-f736-4c98-a63c-9fd4ed0b2ad4" data-name="Icons"><g id="b51e0cbe-66a2-41fc-a19b-cc57fb2dae06" data-name="trailer"><path d="M64.25,175.05a10.5,10.5,0,1,1,10.5-10.5A10.51,10.51,0,0,1,64.25,175.05Zm0-15a4.5,4.5,0,1,0,4.5,4.5A4.5,4.5,0,0,0,64.25,160.05Z"/><path d="M89.25,175.05a10.5,10.5,0,1,1,10.5-10.5A10.51,10.51,0,0,1,89.25,175.05Zm0-15a4.5,4.5,0,1,0,4.5,4.5A4.5,4.5,0,0,0,89.25,160.05Z"/><path d="M143,175.05a10.5,10.5,0,1,1,10.5-10.5A10.51,10.51,0,0,1,143,175.05Zm0-15a4.5,4.5,0,1,0,4.5,4.5A4.5,4.5,0,0,0,143,160.05Z"/><path d="M183,175.05a10.5,10.5,0,1,1,10.5-10.5A10.51,10.51,0,0,1,183,175.05Zm0-15a4.5,4.5,0,1,0,4.5,4.5A4.5,4.5,0,0,0,183,160.05Z"/><path d="M188.78,103.29H165.5a2.51,2.51,0,0,0,0,5h23.23c6.79.11,13.19,14.77,14.14,25.15H185.5V107.83a2.5,2.5,0,1,0-5,0V136a2.51,2.51,0,0,0,2.5,2.5h20V161h-2.5a2.5,2.5,0,0,0,0,5h5a2.5,2.5,0,0,0,2.5-2.5V136C208,124.54,200.72,103.48,188.78,103.29Z"/><path d="M165.5,166.45h-5a3,3,0,0,1,0-6h5a3,3,0,0,1,0,6Z"/><path d="M125.5,166.45H108a3,3,0,0,1,0-6h17.5a3,3,0,0,1,0,6Z"/><path d="M155.5,81H50.5a2.51,2.51,0,0,0-2.5,2.5v64.84a2.51,2.51,0,0,0,2.5,2.51h105a2.51,2.51,0,0,0,2.5-2.51V83.45A2.51,2.51,0,0,0,155.5,81Zm-95,25a2.51,2.51,0,0,1,2.5-2.5h65a2.5,2.5,0,0,1,0,5H63A2.51,2.51,0,0,1,60.5,106ZM143,126H78a2.5,2.5,0,0,1,0-5h65a2.5,2.5,0,0,1,0,5Z"/></g><path d="M181.94,136.27l.56-30.44-19.5,0v60.64h7.24c0-.13,0-.86,0-1a13.06,13.06,0,0,1,26.12,0c0,.13,0,.36,0,.49h7.07l.78-29.66Z"/></g></svg>