<svg xmlns="http://www.w3.org/2000/svg" viewBox="0 0 256 256"><g id="a6f68607-2c71-4756-b791-98f1c21aa236" data-name="Icons"><path d="M158.48,136.41,180.91,114l-8.16-30.59-30.6-8.17L119.72,97.65l8.16,30.6ZM140.4,95.9a14,14,0,1,1,0,19.86A14,14,0,0,1,140.4,95.9Z"/><path d="M197.63,106.08v0c-.25-.85-.51-1.7-.81-2.56L160.39,140c-7.06,7.05-19.77,5.78-26.49-.94l-16.79-16.8c-6.73-6.72-8.31-19.74-1.26-26.79L152.28,59c-.86-.29-1.7-.56-2.55-.8v0C128.9,52,112.42,63,96.66,78.73,89.81,85.58,85.51,92,83.4,98.61h0c-.08.22-.15.46-.21.68l-.12.41c0,.09,0,.18-.08.27-2.87,10.38-.49,21.24,5.83,34.65l-.23.23L59.86,163.59a11.08,11.08,0,0,0-2.46,12.09c1.49,3.57,4.34,8.18,9.69,13.53,5.13,5.13,9.55,7.93,13,9.44a11.19,11.19,0,0,0,12.39-2.34l28.77-28.77.23-.23c13.42,6.32,24.28,8.7,34.65,5.83l.27-.07.41-.12.69-.22h0c6.6-2.11,13-6.41,19.87-13.26C193.16,143.71,203.88,126.93,197.63,106.08Z"/></g></svg>