<svg xmlns="http://www.w3.org/2000/svg" viewBox="0 0 256 256"><g id="a2ba744f-ec96-4339-aa6c-5bb86cfcf871" data-name="Icons"><path d="M124.36,184.71H55.74A7.75,7.75,0,0,0,48,192.47v3.1a7.74,7.74,0,0,0,7.74,7.76h68.62a7.74,7.74,0,0,0,7.73-7.76v-3.1A7.75,7.75,0,0,0,124.36,184.71Z"/><path d="M207.9,143.79c-.1-.39-.17-.81-.24-1.25l-.12-.7-1-5.72-10.6-2.94-5.36,1.32-5.38-1.28-.66.19-9.92,2.8-1,5.75c0,.21-.07.43-.11.66-.07.44-.14.87-.24,1.27a4.43,4.43,0,0,0-.1,1.26l.06,2.27.43.49c1.29,1.43,2.6,2.79,3.89,4l3.3,3.2-1.34-4.41c-.41-1.32-.88-2.71-1.43-4.24l.17-.45a4.6,4.6,0,0,0,.33-1.27c0-.4.11-.83.19-1.28,0-.22.08-.44.11-.67l.4-2.4,6-1.69,5.27,1.25,5.26-1.29,6,1.67.42,2.41c0,.23.08.48.12.72a11.52,11.52,0,0,1,.19,1.23,3.76,3.76,0,0,0,.29,1.08,1.8,1.8,0,0,1,.08.21l.16.4c-.19.53-.38,1.05-.56,1.59s-.43,1.29-.63,1.94l-1.75,5.47,4-4c.5-.51,1-1,1.49-1.54s1.16-1.24,1.87-2l.44-.49,0-2.37A3.67,3.67,0,0,0,207.9,143.79Z"/><path d="M149.43,91.28l28.81,23.44a11.13,11.13,0,0,0,.57,1.08l3.16,12,17.28-.32,2.1-14.28a12.43,12.43,0,0,0,.61-4v0h0a11.63,11.63,0,0,0-.11-1.44,12.45,12.45,0,0,0-9.55-10.45l-32-36.76a16.2,16.2,0,0,0-3.79-4.36l0,0h0a15.84,15.84,0,0,0-25.66,11.2A13.13,13.13,0,0,0,133,76.16C135.89,80.05,149.43,91.28,149.43,91.28Zm-58.9,82.43c-13.22,0-18.89-11.35-18.89-11.35l-7.39,20.09h51.6l-4.35-19A25.55,25.55,0,0,1,90.53,173.71Zm20.41-17.86a21.1,21.1,0,0,0,2.43-9.42l34.49-52.11S125,74.58,124.67,74.94L77.26,131.36a20.91,20.91,0,0,0-1.82,2.17l-.16.19h0a21.06,21.06,0,0,0-2.21,20.66s3.1,10.05,15.7,11.55C105.56,167.94,110.94,155.85,110.94,155.85Zm77.65-54.54a8.05,8.05,0,1,1-6.81,9.11A8,8,0,0,1,188.59,101.31ZM81,146a11.35,11.35,0,1,1,11.34,11.37A11.36,11.36,0,0,1,81,146Zm65.69-68.32a9.76,9.76,0,1,1,9.74-9.76A9.75,9.75,0,0,1,146.72,77.67Z"/><path d="M187.35,124.7c-1.37.07-2.45,2.66-2.42,5.81s1.15,5.65,2.51,5.59l6.31-.26c1.36-.06,2.44-2.66,2.42-5.81s-1.15-5.64-2.51-5.59Z"/></g></svg>