<svg xmlns="http://www.w3.org/2000/svg" viewBox="0 0 256 256"><g id="e0651237-30a5-4bef-bdef-93aa00583108" data-name="Icons"><g id="a2b4a89c-c4f7-489b-8445-67befabb10a9" data-name="engineer-architect"><path d="M99,108.65s.48,9.6,1.73,14.86a28.09,28.09,0,0,0,54.58,0c1.27-5.26,1.75-14.86,1.75-14.86" style="fill:none;stroke:#000;stroke-miterlimit:10;stroke-width:6px"/><path d="M111.06,140.1s1,5-2.41,12.09" style="fill:none;stroke:#000;stroke-miterlimit:10;stroke-width:6px"/><path d="M144.94,140.1s-1,5,2.41,12.09" style="fill:none;stroke:#000;stroke-miterlimit:10;stroke-width:6px"/><path d="M203,203s0-29-19.35-38.71l-33.88-14.52" style="fill:none;stroke:#000;stroke-miterlimit:10;stroke-width:6px"/><path d="M53,203s0-29,19.35-38.71l33.88-14.52" style="fill:none;stroke:#000;stroke-miterlimit:10;stroke-width:6px"/><path d="M96.55,164.29l-2.42,16.94,16.93-16.94S128,171.55,128,203" style="fill:none;stroke:#000;stroke-miterlimit:10;stroke-width:6px"/><line x1="111.06" y1="164.29" x2="106.23" y2="149.77" style="fill:none;stroke:#000;stroke-miterlimit:10;stroke-width:6px"/><path d="M159.45,164.29l2.42,16.94-16.93-16.94S128,171.55,128,203" style="fill:none;stroke:#000;stroke-miterlimit:10;stroke-width:6px"/><line x1="144.94" y1="164.29" x2="149.77" y2="149.77" style="fill:none;stroke:#000;stroke-miterlimit:10;stroke-width:6px"/><line x1="149.77" y1="203" x2="176.39" y2="203" style="fill:none;stroke:#000;stroke-miterlimit:10;stroke-width:6px"/><line x1="157.03" y1="193.32" x2="157.03" y2="203" style="fill:none;stroke:#000;stroke-miterlimit:10;stroke-width:6px"/><line x1="169.13" y1="195.74" x2="166.71" y2="203" style="fill:none;stroke:#000;stroke-miterlimit:10;stroke-width:6px"/><path d="M86.87,91.71v2.42c4.28,6.94,21.68,9.68,41.13,9.68s36.84-2.75,41.13-9.68V91.71" style="fill:none;stroke:#000;stroke-miterlimit:10;stroke-width:6px"/><path d="M149.77,89.29A119.3,119.3,0,0,1,128,91.71a119.3,119.3,0,0,1-21.77-2.42" style="fill:none;stroke:#000;stroke-miterlimit:10;stroke-width:6px"/><path d="M135.26,65.1V55.77a2.4,2.4,0,0,0-2-2.4,37.29,37.29,0,0,0-10.48,0,2.4,2.4,0,0,0-2,2.4V65.1" style="fill:none;stroke:#000;stroke-miterlimit:10;stroke-width:6px"/><path d="M161.87,86.87c0-14.74-11-27.64-26.61-30.73" style="fill:none;stroke:#000;stroke-miterlimit:10;stroke-width:6px"/><path d="M120.74,56.14c-15.61,3.09-26.61,16-26.61,30.73" style="fill:none;stroke:#000;stroke-miterlimit:10;stroke-width:6px"/></g></g></svg>