<svg xmlns="http://www.w3.org/2000/svg" viewBox="0 0 256 256"><g id="fd68b2ad-7d4a-4664-95b3-c32e36fba1d0" data-name="Icons"><g id="bc286ecc-2d01-42da-846b-1117f7a23383" data-name="worker"><path d="M99,108.65s.48,9.6,1.73,14.86a28.09,28.09,0,0,0,54.58,0c1.27-5.26,1.75-14.86,1.75-14.86" style="fill:none;stroke:#000;stroke-miterlimit:10;stroke-width:6px"/><path d="M147.35,154.61c-2.41-4.84,0-16.93,0-16.93" style="fill:none;stroke:#000;stroke-miterlimit:10;stroke-width:6px"/><path d="M108.65,137.68s3.42,9.8,0,16.93" style="fill:none;stroke:#000;stroke-miterlimit:10;stroke-width:6px"/><path d="M203,203s0-29-19.35-38.71l-36.3-14.52" style="fill:none;stroke:#000;stroke-miterlimit:10;stroke-width:6px"/><path d="M53,203s0-29,19.35-38.71l36.3-14.52" style="fill:none;stroke:#000;stroke-miterlimit:10;stroke-width:6px"/><line x1="82.03" y1="203" x2="82.03" y2="159.22" style="fill:none;stroke:#000;stroke-miterlimit:10;stroke-width:10px"/><line x1="173.97" y1="203" x2="173.97" y2="161.79" style="fill:none;stroke:#000;stroke-miterlimit:10;stroke-width:10px"/><path d="M151.26,150a23.29,23.29,0,0,1-46.58,0" style="fill:none;stroke:#000;stroke-miterlimit:10;stroke-width:6px"/><path d="M173.42,176.51c0,12.21-20.22,22.11-45.16,22.11s-45.17-9.9-45.17-22.11" style="fill:none;stroke:#000;stroke-miterlimit:10;stroke-width:6px"/><path d="M86.87,91.71v2.42c4.28,6.94,21.68,9.68,41.13,9.68s36.84-2.75,41.13-9.68V91.71" style="fill:none;stroke:#000;stroke-miterlimit:10;stroke-width:6px"/><path d="M149.77,89.29A119.3,119.3,0,0,1,128,91.71a119.3,119.3,0,0,1-21.77-2.42" style="fill:none;stroke:#000;stroke-miterlimit:10;stroke-width:6px"/><path d="M135.26,65.1V55.77a2.4,2.4,0,0,0-2-2.4,37.29,37.29,0,0,0-10.48,0,2.4,2.4,0,0,0-2,2.4V65.1" style="fill:none;stroke:#000;stroke-miterlimit:10;stroke-width:6px"/><path d="M161.87,86.87c0-14.74-11-27.64-26.61-30.73" style="fill:none;stroke:#000;stroke-miterlimit:10;stroke-width:6px"/><path d="M120.74,56.14c-15.61,3.09-26.61,16-26.61,30.73" style="fill:none;stroke:#000;stroke-miterlimit:10;stroke-width:6px"/></g></g></svg>