<svg xmlns="http://www.w3.org/2000/svg" viewBox="0 0 256 256"><g id="b592f13e-a821-49a8-b80d-4e8b65f10716" data-name="Icons"><path d="M74.6,148.55v8.62h-.82v6.45a37.88,37.88,0,0,0,37.8,37.88h6.84a37.88,37.88,0,0,0,37.8-37.88V139.87H140.58V160.4a23.92,23.92,0,0,1-23.86,23.92h-3.44A23.92,23.92,0,0,1,89.41,160.4V103.87H88.6V96a18.39,18.39,0,1,1,8.11-.13v8H95.9V160.4a17.42,17.42,0,0,0,17.38,17.42h3.44A17.43,17.43,0,0,0,134.1,160.4V139.87h-8A11.19,11.19,0,0,1,115,128.68V59.2A11.19,11.19,0,0,1,126.13,48h60.8A11.19,11.19,0,0,1,198.1,59.2v69.48a11.19,11.19,0,0,1-11.17,11.19H162.7v23.75A44.38,44.38,0,0,1,118.42,208h-6.84A44.38,44.38,0,0,1,67.3,163.62v-6.45h-.82v-8.78" style="fill:#1c1c1c"/><rect x="57.9" y="114.11" width="24.89" height="35.11" rx="5.22" style="fill:#1c1c1c"/></g></svg>