<?xml version="1.0" encoding="UTF-8"?>
<svg width="700pt" height="700pt" version="1.1" viewBox="0 0 700 700" xmlns="http://www.w3.org/2000/svg">
 <path d="m542.5 35c-12.973 0.125-25.441 5.0508-35 13.824h-0.875l-170.8 143.68h-73.324c-4.6406 0-9.0938 1.8438-12.375 5.125s-5.125 7.7344-5.125 12.375v70h-87.5c-9.2812 0-18.184 3.6875-24.75 10.25-6.5625 6.5664-10.25 15.469-10.25 24.75v70c0 4.6406 1.8438 9.0938 5.125 12.375s7.7344 5.125 12.375 5.125h35v17.5h-17.5c-18.758 0-36.09 10.008-45.465 26.25-9.3789 16.242-9.3789 36.258 0 52.5 9.375 16.242 26.707 26.25 45.465 26.25h210c18.758 0 36.09-10.008 45.465-26.25 9.3789-16.242 9.3789-36.258 0-52.5-9.375-16.242-26.707-26.25-45.465-26.25h-17.5v-17.5h35c4.6406 0 9.0938-1.8438 12.375-5.125s5.125-7.7344 5.125-12.375v-111.48l105-87.5v177.98l-60.551 35c-5.4375 3.125-8.7969 8.918-8.8086 15.191-0.011719 6.2734 3.3203 12.078 8.75 15.223 5.4258 3.1484 12.121 3.1602 17.559 0.035157 3.9961-2.2969 8.7383-2.9219 13.195-1.7422 4.457 1.1797 8.2695 4.0703 10.605 8.043l8.75 15.227c2.2383 4.082 2.7578 8.8867 1.4453 13.352-1.3125 4.4688-4.3516 8.2266-8.4453 10.445-5.4375 3.1289-8.7969 8.918-8.8086 15.191-0.015625 6.2734 3.3203 12.078 8.75 15.227 5.4258 3.1445 12.121 3.1602 17.559 0.035156l60.551-35c8.5977-4.7734 15.68-11.863 20.445-20.465 4.7656-8.6016 7.0195-18.367 6.5039-28.188v-1.5742-332.5c0-13.926-5.5312-27.277-15.375-37.125-9.8477-9.8438-23.199-15.375-37.125-15.375zm-385 455c-4.6406 0-9.0938-1.8438-12.375-5.125s-5.125-7.7344-5.125-12.375 1.8438-9.0938 5.125-12.375 7.7344-5.125 12.375-5.125 9.0938 1.8438 12.375 5.125 5.125 7.7344 5.125 12.375-1.8438 9.0938-5.125 12.375-7.7344 5.125-12.375 5.125zm0-122.5v-52.5h87.5v52.5zm70 122.5c-4.6406 0-9.0938-1.8438-12.375-5.125s-5.125-7.7344-5.125-12.375 1.8438-9.0938 5.125-12.375 7.7344-5.125 12.375-5.125 9.0938 1.8438 12.375 5.125 5.125 7.7344 5.125 12.375-1.8438 9.0938-5.125 12.375-7.7344 5.125-12.375 5.125zm70 0c-4.6406 0-9.0938-1.8438-12.375-5.125s-5.125-7.7344-5.125-12.375 1.8438-9.0938 5.125-12.375 7.7344-5.125 12.375-5.125 9.0938 1.8438 12.375 5.125 5.125 7.7344 5.125 12.375-1.8438 9.0938-5.125 12.375-7.7344 5.125-12.375 5.125zm17.5-70h-105v-17.5h105zm52.5 35c4.6406 0 9.0938 1.8438 12.375 5.125s5.125 7.7344 5.125 12.375-1.8438 9.0938-5.125 12.375-7.7344 5.125-12.375 5.125-9.0938-1.8438-12.375-5.125-5.125-7.7344-5.125-12.375 1.8438-9.0938 5.125-12.375 7.7344-5.125 12.375-5.125zm0-87.5h-87.5v-17.5h87.5zm0-52.5h-87.5v-87.5h53.551l33.949 43.75zm20.125-74.727-21.352-27.648 127.23-106.75c4.2266 11.152 12.129 20.535 22.398 26.602zm163.62 199.5-17.5 10.5c-0.98828-6.1484-3.0625-12.074-6.125-17.5l-8.75-15.227v0.003906c-2.9727-5.1758-6.8906-9.7461-11.551-13.477l17.5-10.324c4.0273-2.3281 8.8125-2.957 13.301-1.75 4.4844 1.1641 8.3242 4.0586 10.676 8.0508l8.75 15.227v-0.003906c2.5195 4.0586 3.2734 8.9727 2.0859 13.598-1.1914 4.6289-4.2188 8.5664-8.3867 10.902zm8.75-75.426v0.003906c-3.9453-2.3984-8.1797-4.2773-12.602-5.6016h-4.8984v-202.82l17.5-14.699zm-17.5-259.35c-4.6406 0-9.0938-1.8438-12.375-5.125s-5.125-7.7344-5.125-12.375 1.8438-9.0938 5.125-12.375 7.7344-5.125 12.375-5.125 9.0938 1.8438 12.375 5.125 5.125 7.7344 5.125 12.375-1.8438 9.0938-5.125 12.375-7.7344 5.125-12.375 5.125z"/>
</svg>
