<svg xmlns="http://www.w3.org/2000/svg" viewBox="0 0 256 256"><g id="b12a02b1-baf4-4ce3-8333-80699a5622db" data-name="Icons"><path d="M97.83,151.6a6,6,0,0,1-6.06-6v-.63a6.06,6.06,0,0,1,6.06-6h6.78L78.81,68.7H58.52v5.69H74.84l21.65,58.88a11.78,11.78,0,0,0-10.41,11.65v.64A11.75,11.75,0,0,0,97.82,157.3h99.66v-5.69ZM107,187.3a12.12,12.12,0,1,1,12.12-12.12A12.13,12.13,0,0,1,107,187.3Zm71,0a12.12,12.12,0,1,1,12.12-12.12A12.12,12.12,0,0,1,178,187.3Zm4.3-63.52H118.55a7.74,7.74,0,1,0,0,15.47h63.79a7.74,7.74,0,1,0,0-15.47ZM111.66,114H182a7.74,7.74,0,1,0,0-15.48H111.66a7.74,7.74,0,1,0,0,15.48Z"/></g></svg>