<svg xmlns="http://www.w3.org/2000/svg" viewBox="0 0 256 256"><g id="fa4124d3-f4c1-4adb-90d2-ce601e10ee8f" data-name="Icons"><g id="e215e2cd-6cf4-446f-9394-a2cbf2ddc900" data-name="pallet"><path d="M75,182.11H50.45v6.37H75Zm127.59-18H50.45a2.48,2.48,0,0,0-2.45,2.5v10a2.48,2.48,0,0,0,2.06,2.45H203a2.48,2.48,0,0,0,2.05-2.45v-10A2.47,2.47,0,0,0,202.58,164.14Zm0,27.42v0H178v0H138.79v0H114.25v0H75v0H50.45v0A2.48,2.48,0,0,0,48,194.05v10a2.48,2.48,0,0,0,2.45,2.49H202.58A2.47,2.47,0,0,0,205,204v-10A2.47,2.47,0,0,0,202.58,191.56Zm0-9.45H178v6.37h24.54Zm-63.79,0H114.25v6.37h24.54Z"/><path d="M98.12,100.58H54.32a5.76,5.76,0,0,0-5.71,5.8v44.49a5.76,5.76,0,0,0,5.71,5.79h43.8a5.76,5.76,0,0,0,5.7-5.79V106.38A5.76,5.76,0,0,0,98.12,100.58Zm-29.51,5H83.82v4.2l-1.84-1a2.43,2.43,0,0,0-2.35.08l-3.41,2-3.41-2a2.43,2.43,0,0,0-2.35-.08l-1.85,1Z"/><path d="M148.42,100.58h-43.8a5.76,5.76,0,0,0-5.71,5.8v44.49a5.76,5.76,0,0,0,5.71,5.79h43.8a5.76,5.76,0,0,0,5.7-5.79V106.38A5.76,5.76,0,0,0,148.42,100.58Zm-29.51,5h15.21v4.2l-1.84-1a2.43,2.43,0,0,0-2.35.08l-3.41,2-3.42-2a2.41,2.41,0,0,0-2.34-.08l-1.85,1Z"/><path d="M198.71,100.58H154.92a5.77,5.77,0,0,0-5.71,5.8v44.49a5.76,5.76,0,0,0,5.71,5.79h43.79a5.76,5.76,0,0,0,5.71-5.79V106.38A5.76,5.76,0,0,0,198.71,100.58Zm-29.5,5h15.21v4.2l-1.84-1a2.43,2.43,0,0,0-2.35.08l-3.4,2-3.43-2a2.41,2.41,0,0,0-2.34-.08l-1.85,1Z"/><path d="M148.42,49.48h-43.8a5.77,5.77,0,0,0-5.71,5.8V99.77a5.76,5.76,0,0,0,5.71,5.8h43.8a5.76,5.76,0,0,0,5.7-5.8V55.28A5.76,5.76,0,0,0,148.42,49.48Zm-29.51,5h15.21v4.21l-1.84-1a2.4,2.4,0,0,0-2.35.07l-3.41,2-3.42-2a2.38,2.38,0,0,0-2.34-.07l-1.85,1Z"/><path d="M198.71,49.48H154.92a5.77,5.77,0,0,0-5.71,5.8V99.77a5.77,5.77,0,0,0,5.71,5.8h43.79a5.76,5.76,0,0,0,5.71-5.8V55.28A5.77,5.77,0,0,0,198.71,49.48Zm-29.5,5h15.21v4.21l-1.84-1a2.4,2.4,0,0,0-2.35.07l-3.4,2-3.43-2a2.38,2.38,0,0,0-2.34-.07l-1.85,1Z"/></g></g></svg>