<svg xmlns="http://www.w3.org/2000/svg" viewBox="0 0 256 256"><g id="f5fff1ff-ec03-4a71-bcb3-f846a844883b" data-name="Icons"><path d="M83,179.27c-7.6,0-13.75,6.45-13.75,14.36S75.42,208,83,208s13.73-6.45,13.73-14.37S90.6,179.27,83,179.27Z"/><path d="M142,168.83c-10.34,0-18.76,8.78-18.76,19.58S131.65,208,142,208s18.75-8.8,18.75-19.59S152.33,168.83,142,168.83Z"/><path d="M207.84,134.73c-.49-1.43-2-5.78-3.9-5.12l-42.29,15.78a4.74,4.74,0,0,1-4.06,0c-2.17-1.14-3-4.17-3.09-4.36L120.36,48.46c-.41-1.14-3,.14-4.28.64a2.64,2.64,0,0,0-1.45,3.37l33.73,93.8c.06.23,1.59,5.74,6.09,8.16a9.3,9.3,0,0,0,4.47,1.13,12.39,12.39,0,0,0,4.36-.87l43.08-16.61A2.62,2.62,0,0,0,207.84,134.73Z"/><path d="M145.5,163.6a2.2,2.2,0,0,0,.87-.16s0,0,0,0a3.51,3.51,0,0,0,.52-.33,2.17,2.17,0,0,0,.3-.23,2.26,2.26,0,0,0,.31-.44,1.62,1.62,0,0,0,.23-.37,2.46,2.46,0,0,0,.09-.39A2.54,2.54,0,0,0,148,161s0,0,0,0a2.7,2.7,0,0,0-.08-.41,2.09,2.09,0,0,0-.08-.5l-17.5-48.83C122.25,88.7,105.91,90.43,105.5,90.5h-20a10.38,10.38,0,0,0-8.19,3.4c-3.45,3.89-3.08,9.62-3.06,9.66l-.11,38.5H69.05a1.73,1.73,0,0,0-.45.1H60.88c-.24,0-5.49-.8-9.27,2.74-2.55,2.39-3.75,6-3.59,10.66,0,0,0,.05,0,.08s0,.09,0,.12v23.5c0,5.73,1.53,10,4.56,12.75a12.27,12.27,0,0,0,8.17,3,12.08,12.08,0,0,0,1.25-.06h2.45l0-2.56A18.42,18.42,0,0,1,70,179.68a18.09,18.09,0,0,1,13-5.39,18.45,18.45,0,0,1,18.56,18.12l.08,2.53H115c.08,0,.16-.05.25-.05s.17.05.25.05h0A2.57,2.57,0,0,0,118,192.3c-.08-8.67,2.36-15.9,7.08-20.88S137,163.6,145.5,163.6ZM86.23,102.71A4.67,4.67,0,0,1,90,101.3l16.66,0c.42,0,10.85-1,16.33,14.27l13.32,37.18H105.8a6.28,6.28,0,0,1-4.88-3.43c-5.31-10.22-10.88-10.14-12.35-9.94H84.71l.09-31.78S84.64,104.49,86.23,102.71Z"/></g></svg>